# xmcd
#
# Track frame offsets:
#	182
#	9992
#	17805
#	31160
#	42307
#	54137
#	65057
#	78555
#	90052
#	100832
#
# Disc length: 1491 seconds
#
# Revision: 2
# Processed by: cddbd v1.4PL0 Copyright (c) Steve Scherf et al.
# Submitted via: audiograbber 1.82.00
#
DISCID=6805d10a
DTITLE=Clyde McPhatter - Treasure of Love
DYEAR=1900
DGENRE=
TTITLE0=Treasure Of Love
TTITLE1=Come What May
TTITLE2=Without Love (There Is Nothing)
TTITLE3=Since You've Been Gone
TTITLE4=A Lovers Question
TTITLE5=Long Lonely Nights
TTITLE6=Love Has Joined Us Together (With Ruth Brown)
TTITLE7=Lovey Dovey
TTITLE8=Just Hold My Hand
TTITLE9=Seven Days
EXTD=
EXTT0=
EXTT1=
EXTT2=
EXTT3=
EXTT4=
EXTT5=
EXTT6=
EXTT7=
EXTT8=
EXTT9=
PLAYORDER=
